<svg xmlns="http://www.w3.org/2000/svg" width="800" height="800" viewBox="0 0 800 800" fill="none" opacity="0.35">
  <!-- Neural network / AI connection lines pattern -->
  <!-- Nodes -->
  <circle cx="100" cy="100" r="3" fill="#CBD5E1"/>
  <circle cx="250" cy="60" r="2.5" fill="#CBD5E1"/>
  <circle cx="400" cy="120" r="3.5" fill="#CBD5E1"/>
  <circle cx="550" cy="50" r="2" fill="#CBD5E1"/>
  <circle cx="700" cy="110" r="3" fill="#CBD5E1"/>
  <circle cx="50" cy="250" r="2" fill="#CBD5E1"/>
  <circle cx="180" cy="220" r="3" fill="#CBD5E1"/>
  <circle cx="320" cy="280" r="2.5" fill="#CBD5E1"/>
  <circle cx="480" cy="230" r="3" fill="#CBD5E1"/>
  <circle cx="620" cy="260" r="2" fill="#CBD5E1"/>
  <circle cx="750" cy="220" r="2.5" fill="#CBD5E1"/>
  <circle cx="120" cy="400" r="3" fill="#CBD5E1"/>
  <circle cx="270" cy="380" r="2" fill="#CBD5E1"/>
  <circle cx="400" cy="420" r="3.5" fill="#CBD5E1"/>
  <circle cx="540" cy="370" r="2.5" fill="#CBD5E1"/>
  <circle cx="680" cy="410" r="3" fill="#CBD5E1"/>
  <circle cx="60" cy="550" r="2.5" fill="#CBD5E1"/>
  <circle cx="200" cy="520" r="3" fill="#CBD5E1"/>
  <circle cx="350" cy="570" r="2" fill="#CBD5E1"/>
  <circle cx="500" cy="530" r="3" fill="#CBD5E1"/>
  <circle cx="650" cy="560" r="2.5" fill="#CBD5E1"/>
  <circle cx="780" cy="520" r="2" fill="#CBD5E1"/>
  <circle cx="100" cy="700" r="3" fill="#CBD5E1"/>
  <circle cx="260" cy="680" r="2.5" fill="#CBD5E1"/>
  <circle cx="420" cy="720" r="3" fill="#CBD5E1"/>
  <circle cx="570" cy="690" r="2" fill="#CBD5E1"/>
  <circle cx="720" cy="710" r="3.5" fill="#CBD5E1"/>
  <circle cx="160" cy="150" r="1.5" fill="#D1D5DB"/>
  <circle cx="340" cy="170" r="1.5" fill="#D1D5DB"/>
  <circle cx="600" cy="160" r="1.5" fill="#D1D5DB"/>
  <circle cx="450" cy="320" r="1.5" fill="#D1D5DB"/>
  <circle cx="220" cy="460" r="1.5" fill="#D1D5DB"/>
  <circle cx="580" cy="470" r="1.5" fill="#D1D5DB"/>
  <circle cx="130" cy="620" r="1.5" fill="#D1D5DB"/>
  <circle cx="440" cy="640" r="1.5" fill="#D1D5DB"/>
  <circle cx="700" cy="600" r="1.5" fill="#D1D5DB"/>
  <circle cx="330" cy="750" r="1.5" fill="#D1D5DB"/>
  <circle cx="660" cy="770" r="1.5" fill="#D1D5DB"/>

  <!-- Connection lines - horizontal/diagonal flows -->
  <line x1="100" y1="100" x2="250" y2="60" stroke="#E2E8F0" stroke-width="0.8"/>
  <line x1="250" y1="60" x2="400" y2="120" stroke="#E2E8F0" stroke-width="0.8"/>
  <line x1="400" y1="120" x2="550" y2="50" stroke="#E2E8F0" stroke-width="0.8"/>
  <line x1="550" y1="50" x2="700" y2="110" stroke="#E2E8F0" stroke-width="0.8"/>
  <line x1="100" y1="100" x2="180" y2="220" stroke="#E2E8F0" stroke-width="0.6"/>
  <line x1="250" y1="60" x2="320" y2="280" stroke="#E2E8F0" stroke-width="0.5"/>
  <line x1="400" y1="120" x2="480" y2="230" stroke="#E2E8F0" stroke-width="0.6"/>
  <line x1="550" y1="50" x2="620" y2="260" stroke="#E2E8F0" stroke-width="0.5"/>
  <line x1="700" y1="110" x2="750" y2="220" stroke="#E2E8F0" stroke-width="0.6"/>
  <line x1="50" y1="250" x2="180" y2="220" stroke="#E2E8F0" stroke-width="0.8"/>
  <line x1="180" y1="220" x2="320" y2="280" stroke="#E2E8F0" stroke-width="0.8"/>
  <line x1="320" y1="280" x2="480" y2="230" stroke="#E2E8F0" stroke-width="0.8"/>
  <line x1="480" y1="230" x2="620" y2="260" stroke="#E2E8F0" stroke-width="0.8"/>
  <line x1="620" y1="260" x2="750" y2="220" stroke="#E2E8F0" stroke-width="0.8"/>
  <line x1="180" y1="220" x2="120" y2="400" stroke="#E2E8F0" stroke-width="0.5"/>
  <line x1="320" y1="280" x2="270" y2="380" stroke="#E2E8F0" stroke-width="0.6"/>
  <line x1="480" y1="230" x2="400" y2="420" stroke="#E2E8F0" stroke-width="0.5"/>
  <line x1="620" y1="260" x2="540" y2="370" stroke="#E2E8F0" stroke-width="0.6"/>
  <line x1="750" y1="220" x2="680" y2="410" stroke="#E2E8F0" stroke-width="0.5"/>
  <line x1="120" y1="400" x2="270" y2="380" stroke="#E2E8F0" stroke-width="0.8"/>
  <line x1="270" y1="380" x2="400" y2="420" stroke="#E2E8F0" stroke-width="0.8"/>
  <line x1="400" y1="420" x2="540" y2="370" stroke="#E2E8F0" stroke-width="0.8"/>
  <line x1="540" y1="370" x2="680" y2="410" stroke="#E2E8F0" stroke-width="0.8"/>
  <line x1="120" y1="400" x2="200" y2="520" stroke="#E2E8F0" stroke-width="0.5"/>
  <line x1="270" y1="380" x2="350" y2="570" stroke="#E2E8F0" stroke-width="0.6"/>
  <line x1="400" y1="420" x2="500" y2="530" stroke="#E2E8F0" stroke-width="0.5"/>
  <line x1="540" y1="370" x2="650" y2="560" stroke="#E2E8F0" stroke-width="0.6"/>
  <line x1="680" y1="410" x2="780" y2="520" stroke="#E2E8F0" stroke-width="0.5"/>
  <line x1="60" y1="550" x2="200" y2="520" stroke="#E2E8F0" stroke-width="0.8"/>
  <line x1="200" y1="520" x2="350" y2="570" stroke="#E2E8F0" stroke-width="0.8"/>
  <line x1="350" y1="570" x2="500" y2="530" stroke="#E2E8F0" stroke-width="0.8"/>
  <line x1="500" y1="530" x2="650" y2="560" stroke="#E2E8F0" stroke-width="0.8"/>
  <line x1="650" y1="560" x2="780" y2="520" stroke="#E2E8F0" stroke-width="0.8"/>
  <line x1="200" y1="520" x2="100" y2="700" stroke="#E2E8F0" stroke-width="0.5"/>
  <line x1="350" y1="570" x2="260" y2="680" stroke="#E2E8F0" stroke-width="0.6"/>
  <line x1="500" y1="530" x2="420" y2="720" stroke="#E2E8F0" stroke-width="0.5"/>
  <line x1="650" y1="560" x2="570" y2="690" stroke="#E2E8F0" stroke-width="0.6"/>
  <line x1="780" y1="520" x2="720" y2="710" stroke="#E2E8F0" stroke-width="0.5"/>
  <line x1="100" y1="700" x2="260" y2="680" stroke="#E2E8F0" stroke-width="0.8"/>
  <line x1="260" y1="680" x2="420" y2="720" stroke="#E2E8F0" stroke-width="0.8"/>
  <line x1="420" y1="720" x2="570" y2="690" stroke="#E2E8F0" stroke-width="0.8"/>
  <line x1="570" y1="690" x2="720" y2="710" stroke="#E2E8F0" stroke-width="0.8"/>

  <!-- Cross-connections (diagonal neural paths) -->
  <line x1="100" y1="100" x2="320" y2="280" stroke="#E2E8F0" stroke-width="0.4"/>
  <line x1="400" y1="120" x2="620" y2="260" stroke="#E2E8F0" stroke-width="0.4"/>
  <line x1="180" y1="220" x2="400" y2="420" stroke="#E2E8F0" stroke-width="0.4"/>
  <line x1="480" y1="230" x2="680" y2="410" stroke="#E2E8F0" stroke-width="0.4"/>
  <line x1="120" y1="400" x2="350" y2="570" stroke="#E2E8F0" stroke-width="0.4"/>
  <line x1="400" y1="420" x2="650" y2="560" stroke="#E2E8F0" stroke-width="0.4"/>
  <line x1="200" y1="520" x2="420" y2="720" stroke="#E2E8F0" stroke-width="0.4"/>
  <line x1="500" y1="530" x2="720" y2="710" stroke="#E2E8F0" stroke-width="0.4"/>
  <line x1="250" y1="60" x2="480" y2="230" stroke="#E2E8F0" stroke-width="0.3"/>
  <line x1="50" y1="250" x2="270" y2="380" stroke="#E2E8F0" stroke-width="0.3"/>
  <line x1="320" y1="280" x2="540" y2="370" stroke="#E2E8F0" stroke-width="0.3"/>
  <line x1="60" y1="550" x2="260" y2="680" stroke="#E2E8F0" stroke-width="0.3"/>
  <line x1="350" y1="570" x2="570" y2="690" stroke="#E2E8F0" stroke-width="0.3"/>

  <!-- Small accent nodes at intersections -->
  <circle cx="160" cy="150" r="1.5" fill="#D1D5DB"/>
  <circle cx="340" cy="170" r="1.5" fill="#D1D5DB"/>
  <circle cx="600" cy="160" r="1.5" fill="#D1D5DB"/>
  <circle cx="450" cy="320" r="1.5" fill="#D1D5DB"/>
  <circle cx="220" cy="460" r="1.5" fill="#D1D5DB"/>
  <circle cx="580" cy="470" r="1.5" fill="#D1D5DB"/>
  <circle cx="130" cy="620" r="1.5" fill="#D1D5DB"/>
  <circle cx="440" cy="640" r="1.5" fill="#D1D5DB"/>
  <circle cx="700" cy="600" r="1.5" fill="#D1D5DB"/>
</svg>
